<svg width="230" height="45" viewBox="0 0 230 45" fill="none" xmlns="http://www.w3.org/2000/svg">
<path d="M49.2205 34.512C47.4285 34.512 45.7645 34.2347 44.2285 33.68C42.7138 33.104 41.3912 32.2933 40.2605 31.248C39.1512 30.2027 38.2872 28.9653 37.6685 27.536C37.0498 26.1067 36.7405 24.528 36.7405 22.8C36.7405 21.072 37.0498 19.4933 37.6685 18.064C38.2872 16.6347 39.1512 15.3973 40.2605 14.352C41.3912 13.3067 42.7138 12.5067 44.2285 11.952C45.7645 11.376 47.4285 11.088 49.2205 11.088C51.4178 11.088 53.3592 11.472 55.0445 12.24C56.7512 13.008 58.1592 14.1173 59.2685 15.568L54.5005 19.824C53.8392 18.992 53.1032 18.352 52.2925 17.904C51.5032 17.4347 50.6072 17.2 49.6045 17.2C48.8152 17.2 48.1005 17.328 47.4605 17.584C46.8205 17.84 46.2658 18.2133 45.7965 18.704C45.3485 19.1947 44.9965 19.792 44.7405 20.496C44.4845 21.1787 44.3565 21.9467 44.3565 22.8C44.3565 23.6533 44.4845 24.432 44.7405 25.136C44.9965 25.8187 45.3485 26.4053 45.7965 26.896C46.2658 27.3867 46.8205 27.76 47.4605 28.016C48.1005 28.272 48.8152 28.4 49.6045 28.4C50.6072 28.4 51.5032 28.176 52.2925 27.728C53.1032 27.2587 53.8392 26.608 54.5005 25.776L59.2685 30.032C58.1592 31.4613 56.7512 32.5707 55.0445 33.36C53.3592 34.128 51.4178 34.512 49.2205 34.512ZM61.449 34V11.6H72.233C74.3237 11.6 76.1263 11.9413 77.641 12.624C79.177 13.3067 80.361 14.288 81.193 15.568C82.025 16.8267 82.441 18.32 82.441 20.048C82.441 21.776 82.025 23.2693 81.193 24.528C80.361 25.7653 79.177 26.7147 77.641 27.376C76.1263 28.0373 74.3237 28.368 72.233 28.368H65.641L69.001 25.264V34H61.449ZM74.857 34L69.353 25.84H77.353L82.921 34H74.857ZM69.001 26.096L65.641 22.672H71.753C72.7983 22.672 73.5663 22.4373 74.057 21.968C74.569 21.4987 74.825 20.8587 74.825 20.048C74.825 19.2373 74.569 18.5973 74.057 18.128C73.5663 17.6587 72.7983 17.424 71.753 17.424H65.641L69.001 14V26.096ZM97.0688 34.512C95.2341 34.512 93.5381 34.224 91.9808 33.648C90.4448 33.072 89.1114 32.2613 87.9808 31.216C86.8501 30.1493 85.9648 28.9013 85.3248 27.472C84.7061 26.0427 84.3968 24.4853 84.3968 22.8C84.3968 21.0933 84.7061 19.536 85.3248 18.128C85.9648 16.6987 86.8501 15.4613 87.9808 14.416C89.1114 13.3493 90.4448 12.528 91.9808 11.952C93.5381 11.376 95.2234 11.088 97.0368 11.088C98.8714 11.088 100.557 11.376 102.093 11.952C103.629 12.528 104.962 13.3493 106.093 14.416C107.223 15.4613 108.098 16.6987 108.717 18.128C109.357 19.536 109.677 21.0933 109.677 22.8C109.677 24.4853 109.357 26.0427 108.717 27.472C108.098 28.9013 107.223 30.1493 106.093 31.216C104.962 32.2613 103.629 33.072 102.093 33.648C100.557 34.224 98.8821 34.512 97.0688 34.512ZM97.0368 28.4C97.7408 28.4 98.3914 28.272 98.9888 28.016C99.6074 27.76 100.141 27.3973 100.589 26.928C101.058 26.4373 101.421 25.8507 101.677 25.168C101.933 24.464 102.061 23.6747 102.061 22.8C102.061 21.9253 101.933 21.1467 101.677 20.464C101.421 19.76 101.058 19.1733 100.589 18.704C100.141 18.2133 99.6074 17.84 98.9888 17.584C98.3914 17.328 97.7408 17.2 97.0368 17.2C96.3328 17.2 95.6714 17.328 95.0528 17.584C94.4554 17.84 93.9221 18.2133 93.4528 18.704C93.0048 19.1733 92.6528 19.76 92.3968 20.464C92.1408 21.1467 92.0128 21.9253 92.0128 22.8C92.0128 23.6747 92.1408 24.464 92.3968 25.168C92.6528 25.8507 93.0048 26.4373 93.4528 26.928C93.9221 27.3973 94.4554 27.76 95.0528 28.016C95.6714 28.272 96.3328 28.4 97.0368 28.4ZM112.418 34V11.6H118.626L130.018 25.232H127.138V11.6H134.498V34H128.29L116.898 20.368H119.778V34H112.418ZM149.913 34.512C148.078 34.512 146.382 34.224 144.825 33.648C143.289 33.072 141.955 32.2613 140.825 31.216C139.694 30.1493 138.809 28.9013 138.169 27.472C137.55 26.0427 137.241 24.4853 137.241 22.8C137.241 21.0933 137.55 19.536 138.169 18.128C138.809 16.6987 139.694 15.4613 140.825 14.416C141.955 13.3493 143.289 12.528 144.825 11.952C146.382 11.376 148.067 11.088 149.881 11.088C151.715 11.088 153.401 11.376 154.937 11.952C156.473 12.528 157.806 13.3493 158.937 14.416C160.067 15.4613 160.942 16.6987 161.561 18.128C162.201 19.536 162.521 21.0933 162.521 22.8C162.521 24.4853 162.201 26.0427 161.561 27.472C160.942 28.9013 160.067 30.1493 158.937 31.216C157.806 32.2613 156.473 33.072 154.937 33.648C153.401 34.224 151.726 34.512 149.913 34.512ZM149.881 28.4C150.585 28.4 151.235 28.272 151.833 28.016C152.451 27.76 152.985 27.3973 153.433 26.928C153.902 26.4373 154.265 25.8507 154.521 25.168C154.777 24.464 154.905 23.6747 154.905 22.8C154.905 21.9253 154.777 21.1467 154.521 20.464C154.265 19.76 153.902 19.1733 153.433 18.704C152.985 18.2133 152.451 17.84 151.833 17.584C151.235 17.328 150.585 17.2 149.881 17.2C149.177 17.2 148.515 17.328 147.897 17.584C147.299 17.84 146.766 18.2133 146.297 18.704C145.849 19.1733 145.497 19.76 145.241 20.464C144.985 21.1467 144.857 21.9253 144.857 22.8C144.857 23.6747 144.985 24.464 145.241 25.168C145.497 25.8507 145.849 26.4373 146.297 26.928C146.766 27.3973 147.299 27.76 147.897 28.016C148.515 28.272 149.177 28.4 149.881 28.4ZM173.614 34.512C171.736 34.512 169.923 34.2987 168.174 33.872C166.424 33.4453 164.984 32.8907 163.854 32.208L166.286 26.704C167.352 27.3227 168.536 27.824 169.838 28.208C171.16 28.5707 172.44 28.752 173.678 28.752C174.403 28.752 174.968 28.7093 175.374 28.624C175.8 28.5173 176.11 28.3787 176.302 28.208C176.494 28.016 176.59 27.792 176.59 27.536C176.59 27.1307 176.366 26.8107 175.918 26.576C175.47 26.3413 174.872 26.1493 174.126 26C173.4 25.8293 172.6 25.6587 171.726 25.488C170.851 25.296 169.966 25.0507 169.07 24.752C168.195 24.4533 167.384 24.0587 166.638 23.568C165.912 23.0773 165.326 22.4373 164.878 21.648C164.43 20.8373 164.206 19.8347 164.206 18.64C164.206 17.2533 164.59 15.9947 165.358 14.864C166.147 13.712 167.31 12.7947 168.846 12.112C170.403 11.4293 172.334 11.088 174.638 11.088C176.152 11.088 177.646 11.248 179.118 11.568C180.59 11.888 181.912 12.3787 183.086 13.04L180.814 18.512C179.704 17.9573 178.627 17.5413 177.582 17.264C176.558 16.9867 175.555 16.848 174.574 16.848C173.848 16.848 173.272 16.912 172.845 17.04C172.419 17.168 172.11 17.3387 171.918 17.552C171.747 17.7653 171.661 18 171.661 18.256C171.661 18.64 171.886 18.9493 172.334 19.184C172.782 19.3973 173.368 19.5787 174.094 19.728C174.84 19.8773 175.651 20.0373 176.526 20.208C177.422 20.3787 178.307 20.6133 179.182 20.912C180.056 21.2107 180.856 21.6053 181.582 22.096C182.328 22.5867 182.926 23.2267 183.374 24.016C183.822 24.8053 184.046 25.7867 184.046 26.96C184.046 28.3253 183.651 29.584 182.862 30.736C182.094 31.8667 180.942 32.784 179.406 33.488C177.87 34.1707 175.939 34.512 173.614 34.512Z" fill="#232C33"/>
<path d="M189.333 34.32C188.138 34.32 187.135 33.936 186.325 33.168C185.514 32.3787 185.109 31.376 185.109 30.16C185.109 28.9227 185.514 27.9307 186.325 27.184C187.135 26.4373 188.138 26.064 189.333 26.064C190.527 26.064 191.53 26.4373 192.341 27.184C193.151 27.9307 193.557 28.9227 193.557 30.16C193.557 31.376 193.151 32.3787 192.341 33.168C191.53 33.936 190.527 34.32 189.333 34.32Z" fill="#D36135"/>
</svg>
